<svg height="469pt" viewBox="-32 0 469 469.33333" width="469pt" xmlns="http://www.w3.org/2000/svg"><path d="m133.5 277.332031c-8.832031 0-16-7.167969-16-16v-192c0-26.453125 21.523438-48 48-48s48 21.546875 48 48v170.667969c0 8.832031-7.167969 16-16 16s-16-7.167969-16-16v-170.667969c0-8.808593-7.167969-16-16-16s-16 7.191407-16 16v192c0 8.832031-7.167969 16-16 16zm0 0"/><path d="m261.5 256c-8.832031 0-16-7.167969-16-16v-192c0-8.8125-7.167969-16-16-16s-16 7.1875-16 16v37.332031c0 8.832031-7.167969 16-16 16s-16-7.167969-16-16v-37.332031c0-26.453125 21.523438-48 48-48s48 21.546875 48 48v192c0 8.832031-7.167969 16-16 16zm0 0"/><path d="m325.5 256c-8.832031 0-16-7.167969-16-16v-149.332031c0-8.8125-7.167969-16-16-16s-16 7.1875-16 16v16c0 8.832031-7.167969 16-16 16s-16-7.167969-16-16v-16c0-26.453125 21.523438-48 48-48s48 21.546875 48 48v149.332031c0 8.832031-7.167969 16-16 16zm0 0"/><path d="m304.167969 469.332031h-117.699219c-34.878906 0-67.921875-18.429687-86.25-48.148437l-92.480469-149.953125c-.019531-.042969-.019531-.0625-.039062-.082031-4.929688-7.53125-7.53125-16.472657-7.53125-25.816407 0-26.453125 21.523437-48 48-48 8.808593 0 17.234375 2.304688 24.46875 6.699219.253906.148438.511719.320312.789062.449219l68.628907 43.285156c7.445312 4.757813 9.683593 14.632813 4.96875 22.101563-4.710938 7.464843-14.613282 9.683593-22.078126 4.992187l-68.011718-42.921875c-.253906-.152344-.488282-.300781-.722656-.449219-2.21875-1.386719-5.078126-2.15625-8.042969-2.15625-8.832031 0-16 7.191407-16 16 0 2.945313.746093 5.738281 2.066406 7.957031.152344.214844.277344.429688.40625.621094l92.800781 150.484375c12.542969 20.308594 35.15625 32.9375 59.027344 32.9375h117.699219c38.226562 0 69.332031-31.101562 69.332031-69.332031v-256c0-8.8125-7.167969-16-16-16s-16 7.1875-16 16c0 8.832031-7.167969 16-16 16s-16-7.167969-16-16c0-26.453125 21.523438-48 48-48s48 21.546875 48 48v256c0 55.871094-45.460938 101.332031-101.332031 101.332031zm0 0"/></svg>