<svg id="regular" enable-background="new 0 0 24 24" height="512" viewBox="0 0 24 24" width="512" xmlns="http://www.w3.org/2000/svg"><path d="m4 15.383c0 3.654 3.394 8.134 3.538 8.323.148.192.371.294.597.294.158 0 .318-.05.455-.154.328-.252.392-.723.14-1.052-.033-.042-3.23-4.259-3.23-7.411 0-1.449.772-2.395 1.411-2.935l.482 3.052c.059.369.378.633.74.633.039 0 .078-.003.118-.009.409-.065.688-.449.624-.858l-1.779-11.267c-.109-.719.924-.897 1.047-.149l1.672 8.241c.074.364.401.62.776.6.372-.021.672-.311.706-.682l.896-9.884c.067-.895 1.37-.786 1.3.109l-.663 8.094c0 .011-.003.022-.003.034l-.124 1.518c-.034.413.273.775.686.809.43.036.775-.272.809-.686l.117-1.428c.385-.624 1.285-.331 1.285.383v1.967c0 .414.336.75.75.75s.75-.336.75-.75c0-.96 1.4-.96 1.4 0v.286c0 6.18-3.139 9.482-3.169 9.514-.29.295-.286.77.01 1.061.145.143.336.214.525.214.194 0 .388-.075.535-.225.147-.149 3.599-3.738 3.599-10.564v-.286c0-1.479-1.435-2.612-2.913-2.095-.072-1.256-1.196-2.331-2.627-2.032l.528-6.441c.234-2.857-4.075-3.224-4.289-.355l-.433 4.77-.648-3.194c-.429-2.593-4.414-2.056-4.005.65l1.035 6.555c-.87.546-2.648 1.979-2.648 4.6z"/></svg>